<svg width="40" height="40" viewBox="0 0 40 40" fill="none" xmlns="http://www.w3.org/2000/svg">
<path d="M13.3335 9.58398C12.6502 9.58398 12.0835 9.01732 12.0835 8.33398V3.33398C12.0835 2.65065 12.6502 2.08398 13.3335 2.08398C14.0168 2.08398 14.5835 2.65065 14.5835 3.33398V8.33398C14.5835 9.01732 14.0168 9.58398 13.3335 9.58398Z" fill="#1C1C1C"/>
<path d="M26.6665 9.58398C25.9832 9.58398 25.4165 9.01732 25.4165 8.33398V3.33398C25.4165 2.65065 25.9832 2.08398 26.6665 2.08398C27.3498 2.08398 27.9165 2.65065 27.9165 3.33398V8.33398C27.9165 9.01732 27.3498 9.58398 26.6665 9.58398Z" fill="#1C1C1C"/>
<path d="M14.1667 24.1659C13.95 24.1659 13.7333 24.1159 13.5333 24.0326C13.3167 23.9492 13.15 23.8325 12.9833 23.6825C12.6833 23.3659 12.5 22.9492 12.5 22.4992C12.5 22.2826 12.55 22.0659 12.6333 21.8659C12.7167 21.6659 12.8333 21.4826 12.9833 21.3159C13.15 21.1659 13.3167 21.0492 13.5333 20.9659C14.1333 20.7159 14.8833 20.8492 15.35 21.3159C15.65 21.6326 15.8333 22.0659 15.8333 22.4992C15.8333 22.5992 15.8167 22.7159 15.8 22.8326C15.7833 22.9326 15.75 23.0326 15.7 23.1326C15.6667 23.2326 15.6167 23.3325 15.55 23.4325C15.5 23.5159 15.4167 23.5992 15.35 23.6825C15.0333 23.9825 14.6 24.1659 14.1667 24.1659Z" fill="#1C1C1C"/>
<path d="M20.0002 24.1674C19.7835 24.1674 19.5668 24.1175 19.3668 24.0341C19.1502 23.9508 18.9835 23.8341 18.8168 23.6841C18.5168 23.3674 18.3335 22.9508 18.3335 22.5008C18.3335 22.2841 18.3835 22.0674 18.4668 21.8674C18.5502 21.6674 18.6668 21.4841 18.8168 21.3174C18.9835 21.1674 19.1502 21.0507 19.3668 20.9674C19.9668 20.7007 20.7168 20.8508 21.1835 21.3174C21.4835 21.6341 21.6668 22.0674 21.6668 22.5008C21.6668 22.6008 21.6502 22.7175 21.6335 22.8341C21.6168 22.9341 21.5835 23.0341 21.5335 23.1341C21.5002 23.2341 21.4502 23.3341 21.3835 23.4341C21.3335 23.5174 21.2502 23.6007 21.1835 23.6841C20.8668 23.9841 20.4335 24.1674 20.0002 24.1674Z" fill="#1C1C1C"/>
<path d="M25.8332 24.1674C25.6165 24.1674 25.3998 24.1175 25.1998 24.0341C24.9832 23.9508 24.8165 23.8341 24.6498 23.6841C24.5832 23.6007 24.5165 23.5174 24.4498 23.4341C24.3832 23.3341 24.3332 23.2341 24.2998 23.1341C24.2498 23.0341 24.2165 22.9341 24.1998 22.8341C24.1832 22.7175 24.1665 22.6008 24.1665 22.5008C24.1665 22.0674 24.3498 21.6341 24.6498 21.3174C24.8165 21.1674 24.9832 21.0507 25.1998 20.9674C25.8165 20.7007 26.5498 20.8508 27.0165 21.3174C27.3165 21.6341 27.4998 22.0674 27.4998 22.5008C27.4998 22.6008 27.4832 22.7175 27.4665 22.8341C27.4498 22.9341 27.4165 23.0341 27.3665 23.1341C27.3332 23.2341 27.2832 23.3341 27.2165 23.4341C27.1665 23.5174 27.0832 23.6007 27.0165 23.6841C26.6998 23.9841 26.2665 24.1674 25.8332 24.1674Z" fill="#1C1C1C"/>
<path d="M14.1667 30C13.95 30 13.7333 29.95 13.5333 29.8667C13.3333 29.7833 13.15 29.6666 12.9833 29.5166C12.6833 29.2 12.5 28.7667 12.5 28.3333C12.5 28.1167 12.55 27.9 12.6333 27.7C12.7167 27.4833 12.8333 27.3 12.9833 27.15C13.6 26.5333 14.7333 26.5333 15.35 27.15C15.65 27.4667 15.8333 27.9 15.8333 28.3333C15.8333 28.7667 15.65 29.2 15.35 29.5166C15.0333 29.8166 14.6 30 14.1667 30Z" fill="#1C1C1C"/>
<path d="M20.0002 30C19.5668 30 19.1335 29.8166 18.8168 29.5166C18.5168 29.2 18.3335 28.7667 18.3335 28.3333C18.3335 28.1167 18.3835 27.9 18.4668 27.7C18.5502 27.4833 18.6668 27.3 18.8168 27.15C19.4335 26.5333 20.5668 26.5333 21.1835 27.15C21.3335 27.3 21.4502 27.4833 21.5335 27.7C21.6168 27.9 21.6668 28.1167 21.6668 28.3333C21.6668 28.7667 21.4835 29.2 21.1835 29.5166C20.8668 29.8166 20.4335 30 20.0002 30Z" fill="#1C1C1C"/>
<path d="M25.8332 30.0008C25.3998 30.0008 24.9665 29.8175 24.6498 29.5175C24.4998 29.3675 24.3832 29.1842 24.2998 28.9675C24.2165 28.7675 24.1665 28.5508 24.1665 28.3342C24.1665 28.1175 24.2165 27.9008 24.2998 27.7008C24.3832 27.4842 24.4998 27.3008 24.6498 27.1508C25.0332 26.7675 25.6165 26.5841 26.1498 26.7008C26.2665 26.7175 26.3665 26.7508 26.4665 26.8008C26.5665 26.8341 26.6665 26.8842 26.7665 26.9509C26.8498 27.0009 26.9332 27.0842 27.0165 27.1508C27.3165 27.4675 27.4998 27.9008 27.4998 28.3342C27.4998 28.7675 27.3165 29.2008 27.0165 29.5175C26.6998 29.8175 26.2665 30.0008 25.8332 30.0008Z" fill="#1C1C1C"/>
<path d="M34.1668 16.4004H5.8335C5.15016 16.4004 4.5835 15.8337 4.5835 15.1504C4.5835 14.4671 5.15016 13.9004 5.8335 13.9004H34.1668C34.8502 13.9004 35.4168 14.4671 35.4168 15.1504C35.4168 15.8337 34.8502 16.4004 34.1668 16.4004Z" fill="#1C1C1C"/>
<path d="M26.6667 37.9173H13.3333C7.25 37.9173 3.75 34.4173 3.75 28.334V14.1673C3.75 8.08398 7.25 4.58398 13.3333 4.58398H26.6667C32.75 4.58398 36.25 8.08398 36.25 14.1673V28.334C36.25 34.4173 32.75 37.9173 26.6667 37.9173ZM13.3333 7.08398C8.56667 7.08398 6.25 9.40065 6.25 14.1673V28.334C6.25 33.1007 8.56667 35.4173 13.3333 35.4173H26.6667C31.4333 35.4173 33.75 33.1007 33.75 28.334V14.1673C33.75 9.40065 31.4333 7.08398 26.6667 7.08398H13.3333Z" fill="#1C1C1C"/>
</svg>
