<svg width="24" height="25" viewBox="0 0 24 25" fill="none" xmlns="http://www.w3.org/2000/svg">
<g clip-path="url(#clip0_3_16040)">
<path d="M12 24.666C18.6274 24.666 24 19.2934 24 12.666C24 6.0386 18.6274 0.666016 12 0.666016C5.37258 0.666016 0 6.0386 0 12.666C0 19.2934 5.37258 24.666 12 24.666Z" fill="#F0F0F0"/>
<path d="M11.9997 0.666016C7.24218 0.666016 3.13143 3.43469 1.19043 7.44864H22.8089C20.868 3.43469 16.7572 0.666016 11.9997 0.666016Z" fill="#FF9811"/>
<path d="M11.9997 24.6654C16.7572 24.6654 20.868 21.8968 22.809 17.8828H1.19043C3.13143 21.8968 7.24218 24.6654 11.9997 24.6654Z" fill="#6DA544"/>
<path d="M12.0001 16.84C14.3052 16.84 16.174 14.9713 16.174 12.6661C16.174 10.3609 14.3052 8.49219 12.0001 8.49219C9.69489 8.49219 7.82617 10.3609 7.82617 12.6661C7.82617 14.9713 9.69489 16.84 12.0001 16.84Z" fill="#0052B4"/>
<path d="M12.0003 15.274C13.441 15.274 14.609 14.1061 14.609 12.6653C14.609 11.2246 13.441 10.0566 12.0003 10.0566C10.5596 10.0566 9.3916 11.2246 9.3916 12.6653C9.3916 14.1061 10.5596 15.274 12.0003 15.274Z" fill="#F0F0F0"/>
<path d="M11.9997 9.44727L12.8045 11.2725L14.7875 11.0568L13.6093 12.6664L14.7875 14.2759L12.8045 14.0602L11.9997 15.8855L11.1949 14.0602L9.21191 14.2759L10.3902 12.6664L9.21191 11.0568L11.1949 11.2725L11.9997 9.44727Z" fill="#0052B4"/>
</g>
<defs>
<clipPath id="clip0_3_16040">
<rect width="24" height="24" fill="white" transform="translate(0 0.666016)"/>
</clipPath>
</defs>
</svg>
