<svg width="24" height="25" viewBox="0 0 24 25" fill="none" xmlns="http://www.w3.org/2000/svg">
<g clip-path="url(#clip0_3_16052)">
<path d="M12 24.666C18.6274 24.666 24 19.2934 24 12.666C24 6.0386 18.6274 0.666016 12 0.666016C5.37258 0.666016 0 6.0386 0 12.666C0 19.2934 5.37258 24.666 12 24.666Z" fill="#F0F0F0"/>
<path d="M6.78223 16.8398L7.82571 23.9197C9.12565 24.402 10.5318 24.666 11.9996 24.666C17.1591 24.666 21.5577 21.4095 23.2532 16.8398H6.78223Z" fill="black"/>
<path d="M6.78223 8.49213L7.82571 1.41231C9.12565 0.929922 10.5318 0.666016 11.9996 0.666016C17.1591 0.666016 21.5577 3.92252 23.2532 8.49213H6.78223Z" fill="#6DA544"/>
<path d="M0 12.6657C0 17.8253 3.25655 22.2238 7.82611 23.9193V1.41211C3.25655 3.10762 0 7.50614 0 12.6657Z" fill="#A2001D"/>
</g>
<defs>
<clipPath id="clip0_3_16052">
<rect width="24" height="24" fill="white" transform="translate(0 0.666016)"/>
</clipPath>
</defs>
</svg>
