<svg width="70" height="48" viewBox="0 0 70 48" fill="none" xmlns="http://www.w3.org/2000/svg">
<g clip-path="url(#clip0_1_5575)">
<path d="M0 0.666016H70V47.3332H0V0.666016Z" fill="#0052B4"/>
<path d="M58.1469 20.9574L58.6101 22.3831H60.109L58.8963 23.2641L59.3595 24.6897L58.1469 23.8087L56.9341 24.6897L57.3973 23.2641L56.1846 22.3831H57.6834L58.1469 20.9574ZM52.7883 31.2211L53.4833 33.3597H55.7316L53.9126 34.6814L54.6074 36.8196L52.7883 35.498L50.9693 36.8196L51.6642 34.6814L49.8452 33.3597H52.0935L52.7883 31.2211ZM52.9908 14.4258L53.57 16.208H55.4436L53.9276 17.3092L54.5066 19.0912L52.9908 17.9898L51.4749 19.0912L52.0539 17.3092L50.5381 16.208H52.4117L52.9908 14.4258ZM47.8349 20.8953L48.5297 23.0337H50.7782L48.959 24.3553L49.6541 26.4937L47.8349 25.1721L46.0158 26.4937L46.7106 24.3553L44.8916 23.0337H47.1399L47.8349 20.8953Z" fill="#D80027"/>
<path d="M35.001 0.666016V4.84469L28.8243 8.27469H35.001V16.3902H26.9191L35.001 20.8808V23.9988H31.352L21.3053 18.4172V23.9988H13.6966V17.358L1.74346 23.9988H0.000976562V19.8217L6.17629 16.3902H0.000976562V8.27469H8.08147L0.000976562 3.78566V0.666016H3.64863L13.6966 6.24934V0.666016H21.3053V7.30685L33.2586 0.666016H35.001Z" fill="white"/>
<path d="M19.6875 0.666016H15.3125V10.1453H0V14.5203H15.3125V23.9995H19.6875V14.5203H35V10.1453H19.6875V0.666016Z" fill="#D80027"/>
<path d="M21.3047 16.3906L35.0004 23.9996V21.8478L25.1775 16.3906H21.3047Z" fill="#0052B4"/>
<path d="M21.3047 16.3906L35.0004 23.9996V21.8478L25.1775 16.3906H21.3047Z" fill="white"/>
<path d="M21.3043 16.3906L35 23.9996V21.8478L25.1772 16.3906H21.3043ZM9.8227 16.3906L0 21.8478V23.9996L13.6957 16.3906H9.8227Z" fill="#D80027"/>
<path d="M13.6957 8.27482L0 0.666016V2.81769L9.82283 8.27482H13.6957Z" fill="#0052B4"/>
<path d="M13.6957 8.27482L0 0.666016V2.81769L9.82283 8.27482H13.6957Z" fill="white"/>
<path d="M13.6957 8.27482L0 0.666016V2.8177L9.82283 8.27482H13.6957ZM25.1773 8.27482L35 2.8177V0.666016L21.3043 8.27482H25.1773Z" fill="#D80027"/>
</g>
<defs>
<clipPath id="clip0_1_5575">
<rect width="70" height="46.6666" fill="white" transform="translate(0 0.666016)"/>
</clipPath>
</defs>
</svg>
