<svg width="24" height="25" viewBox="0 0 24 25" fill="none" xmlns="http://www.w3.org/2000/svg">
<g clip-path="url(#clip0_3_16037)">
<path d="M12 24.666C18.6274 24.666 24 19.2934 24 12.666C24 6.0386 18.6274 0.666016 12 0.666016C5.37258 0.666016 0 6.0386 0 12.666C0 19.2934 5.37258 24.666 12 24.666Z" fill="#F0F0F0"/>
<path d="M0 12.6659C0 17.2144 2.53073 21.1716 6.26086 23.2068V2.125C2.53073 4.16027 0 8.11741 0 12.6659Z" fill="#F0F0F0"/>
<path d="M11.9999 0.666016C9.92098 0.666016 7.96563 1.19491 6.26074 2.12509V23.2069C7.96563 24.1371 9.92098 24.666 11.9999 24.666C18.6273 24.666 23.9999 19.2934 23.9999 12.666C23.9999 6.03864 18.6273 0.666016 11.9999 0.666016Z" fill="#496E2D"/>
<path d="M17.1307 14.6505C15.6126 15.7474 13.4926 15.406 12.3957 13.8879C11.2987 12.3697 11.6402 10.2498 13.1584 9.15288C13.6317 8.81088 14.1636 8.60871 14.7046 8.53845C13.6637 8.38278 12.5633 8.61734 11.6428 9.28245C9.77437 10.6325 9.35404 13.2417 10.7041 15.1102C12.0541 16.9786 14.6633 17.3989 16.5318 16.0488C17.4524 15.3837 18.0206 14.4127 18.1995 13.3754C17.963 13.867 17.6041 14.3084 17.1307 14.6505Z" fill="#F0F0F0"/>
<path d="M17.0659 8.49219L17.9211 9.4138L19.0618 8.88542L18.4495 9.98342L19.3046 10.9051L18.0711 10.6621L17.4588 11.7602L17.3088 10.5119L16.0752 10.2688L17.216 9.74047L17.0659 8.49219Z" fill="#F0F0F0"/>
</g>
<defs>
<clipPath id="clip0_3_16037">
<rect width="24" height="24" fill="white" transform="translate(0 0.666016)"/>
</clipPath>
</defs>
</svg>
