<svg width="24" height="25" viewBox="0 0 24 25" fill="none" xmlns="http://www.w3.org/2000/svg">
<g clip-path="url(#clip0_3_16049)">
<path d="M12 24.666C18.6274 24.666 24 19.2934 24 12.666C24 6.0386 18.6274 0.666016 12 0.666016C5.37258 0.666016 0 6.0386 0 12.666C0 19.2934 5.37258 24.666 12 24.666Z" fill="#F0F0F0"/>
<path d="M23.2536 8.49219H0.746391C0.264 9.79217 0 11.1982 0 12.6661C0 14.1339 0.264 15.54 0.746391 16.84H23.2537C23.736 15.54 24 14.1339 24 12.6661C24 11.1982 23.736 9.79217 23.2536 8.49219Z" fill="#0052B4"/>
<path d="M11.9999 0.666016C8.36285 0.666016 5.10396 2.28433 2.90332 4.83991H21.0965C18.8959 2.28433 15.637 0.666016 11.9999 0.666016Z" fill="#D80027"/>
<path d="M21.0965 20.4922H2.90332C5.10396 23.0478 8.36285 24.6661 11.9999 24.6661C15.637 24.6661 18.8959 23.0478 21.0965 20.4922Z" fill="#D80027"/>
</g>
<defs>
<clipPath id="clip0_3_16049">
<rect width="24" height="24" fill="white" transform="translate(0 0.666016)"/>
</clipPath>
</defs>
</svg>
