<svg width="24" height="25" viewBox="0 0 24 25" fill="none" xmlns="http://www.w3.org/2000/svg">
<g clip-path="url(#clip0_3_16043)">
<path d="M12 24.666C18.6274 24.666 24 19.2934 24 12.666C24 6.0386 18.6274 0.666016 12 0.666016C5.37258 0.666016 0 6.0386 0 12.666C0 19.2934 5.37258 24.666 12 24.666Z" fill="#F0F0F0"/>
<path d="M11.4775 12.6676H23.9993C23.9993 11.5845 23.8549 10.5352 23.5859 9.53711H11.4775V12.6676Z" fill="#D80027"/>
<path d="M11.4775 6.40584H22.238C21.5034 5.20716 20.5642 4.14764 19.4691 3.27539H11.4775V6.40584Z" fill="#D80027"/>
<path d="M12.0001 24.6673C14.8243 24.6673 17.4201 23.6912 19.4699 22.0586H4.53027C6.58012 23.6912 9.17591 24.6673 12.0001 24.6673Z" fill="#D80027"/>
<path d="M1.76098 18.9273H22.2384C22.8281 17.965 23.2855 16.9132 23.5863 15.7969H0.413086C0.713883 16.9132 1.17124 17.965 1.76098 18.9273Z" fill="#D80027"/>
<path d="M5.55863 2.53998H6.65217L5.63498 3.27897L6.02353 4.4747L5.00639 3.73572L3.98925 4.4747L4.32487 3.44172C3.42928 4.18773 2.64431 5.06177 1.99744 6.03564H2.34783L1.70034 6.50603C1.59947 6.67431 1.50272 6.84527 1.41 7.01875L1.71919 7.97036L1.14234 7.55125C0.998953 7.85505 0.867797 8.16569 0.749906 8.4828L1.09055 9.5313H2.34783L1.33064 10.2703L1.71919 11.466L0.702047 10.727L0.0927656 11.1697C0.0317812 11.6599 0 12.1593 0 12.666H12C12 6.03864 12 5.25733 12 0.666016C9.62944 0.666016 7.41961 1.35367 5.55863 2.53998ZM6.02353 11.466L5.00639 10.727L3.98925 11.466L4.3778 10.2703L3.36061 9.5313H4.61789L5.00639 8.33556L5.39489 9.5313H6.65217L5.63498 10.2703L6.02353 11.466ZM5.63498 6.77462L6.02353 7.97036L5.00639 7.23138L3.98925 7.97036L4.3778 6.77462L3.36061 6.03564H4.61789L5.00639 4.83991L5.39489 6.03564H6.65217L5.63498 6.77462ZM10.3279 11.466L9.31073 10.727L8.29359 11.466L8.68214 10.2703L7.66495 9.5313H8.92223L9.31073 8.33556L9.69923 9.5313H10.9565L9.93933 10.2703L10.3279 11.466ZM9.93933 6.77462L10.3279 7.97036L9.31073 7.23138L8.29359 7.97036L8.68214 6.77462L7.66495 6.03564H8.92223L9.31073 4.83991L9.69923 6.03564H10.9565L9.93933 6.77462ZM9.93933 3.27897L10.3279 4.4747L9.31073 3.73572L8.29359 4.4747L8.68214 3.27897L7.66495 2.53998H8.92223L9.31073 1.34425L9.69923 2.53998H10.9565L9.93933 3.27897Z" fill="#0052B4"/>
</g>
<defs>
<clipPath id="clip0_3_16043">
<rect width="24" height="24" fill="white" transform="translate(0 0.666016)"/>
</clipPath>
</defs>
</svg>
