<svg width="12" height="12" viewBox="0 0 12 12" fill="none" xmlns="http://www.w3.org/2000/svg">
<g clip-path="url(#clip0_1_8029)">
<path d="M6.33669 1.62014L7.149 3.24475C7.25977 3.47091 7.55515 3.68783 7.80439 3.72937L9.27669 3.97398C10.2182 4.13091 10.4398 4.81398 9.76131 5.48783L8.61669 6.63245C8.42285 6.82629 8.31669 7.20014 8.37669 7.46783L8.70439 8.88475C8.96285 10.0063 8.36746 10.4401 7.37515 9.85399L5.99515 9.03706C5.74592 8.88937 5.33516 8.88937 5.08131 9.03706L3.70131 9.85399C2.71362 10.4401 2.11362 10.0017 2.37208 8.88475L2.69977 7.46783C2.75977 7.20014 2.65362 6.82629 2.45977 6.63245L1.31515 5.48783C0.641309 4.81398 0.858232 4.13091 1.79977 3.97398L3.27208 3.72937C3.51669 3.68783 3.81208 3.47091 3.92285 3.24475L4.73516 1.62014C5.17823 0.7386 5.89823 0.7386 6.33669 1.62014Z" fill="#FFC100"/>
</g>
<defs>
<clipPath id="clip0_1_8029">
<rect width="12" height="12" fill="white"/>
</clipPath>
</defs>
</svg>
