<svg width="16" height="17" viewBox="0 0 16 17" fill="none" xmlns="http://www.w3.org/2000/svg">
<path d="M12.6663 6.66667C12.6663 7.63333 12.3797 8.52001 11.8863 9.26001C11.1663 10.3267 10.0263 11.08 8.69967 11.2733C8.47301 11.3133 8.23967 11.3333 7.99967 11.3333C7.75967 11.3333 7.52634 11.3133 7.29967 11.2733C5.97301 11.08 4.83301 10.3267 4.11301 9.26001C3.61967 8.52001 3.33301 7.63333 3.33301 6.66667C3.33301 4.08667 5.41967 2 7.99967 2C10.5797 2 12.6663 4.08667 12.6663 6.66667Z" stroke="black" stroke-width="1.5" stroke-linecap="round" stroke-linejoin="round"/>
<path d="M14.1664 12.979L13.0664 13.239C12.8197 13.299 12.6264 13.4856 12.5731 13.7323L12.3397 14.7123C12.2131 15.2456 11.5331 15.4056 11.1797 14.9856L7.99973 11.3323L4.81973 14.9923C4.46639 15.4123 3.78639 15.2523 3.65973 14.719L3.42639 13.739C3.36639 13.4923 3.17306 13.299 2.93306 13.2456L1.83306 12.9856C1.32639 12.8656 1.14639 12.2323 1.51306 11.8656L4.11306 9.26562C4.83306 10.3323 5.97306 11.0856 7.29973 11.279C7.52639 11.319 7.75973 11.339 7.99973 11.339C8.23973 11.339 8.47306 11.319 8.69973 11.279C10.0264 11.0856 11.1664 10.3323 11.8864 9.26562L14.4864 11.8656C14.8531 12.2256 14.6731 12.859 14.1664 12.979Z" stroke="black" stroke-width="1.5" stroke-linecap="round" stroke-linejoin="round"/>
<path d="M8.38632 4.65203L8.77966 5.43869C8.83299 5.54536 8.97299 5.65203 9.09966 5.67203L9.81299 5.79203C10.2663 5.86536 10.373 6.1987 10.0463 6.52536L9.49299 7.07869C9.39966 7.17202 9.34632 7.35203 9.37966 7.48536L9.53966 8.17203C9.66632 8.71203 9.37966 8.92535 8.89966 8.63868L8.23299 8.24535C8.11299 8.17202 7.91299 8.17202 7.79299 8.24535L7.12632 8.63868C6.64632 8.91868 6.35966 8.71203 6.48632 8.17203L6.64632 7.48536C6.67299 7.3587 6.62632 7.17202 6.53299 7.07869L5.97966 6.52536C5.65299 6.1987 5.75966 5.87203 6.21299 5.79203L6.92632 5.67203C7.04632 5.65203 7.18632 5.54536 7.23966 5.43869L7.63299 4.65203C7.82632 4.22536 8.17299 4.22536 8.38632 4.65203Z" stroke="black" stroke-width="1.5" stroke-linecap="round" stroke-linejoin="round"/>
</svg>
