<svg width="24" height="25" viewBox="0 0 24 25" fill="none" xmlns="http://www.w3.org/2000/svg">
<g clip-path="url(#clip0_3_16033)">
<g clip-path="url(#clip1_3_16033)">
<path d="M12 24.666C18.6274 24.666 24 19.2934 24 12.666C24 6.0386 18.6274 0.666016 12 0.666016C5.37258 0.666016 0 6.0386 0 12.666C0 19.2934 5.37258 24.666 12 24.666Z" fill="#F0F0F0"/>
<path d="M23.9292 13.9705C23.9292 13.9704 23.9293 13.9703 23.9293 13.9701L10.7693 0.728516C10.1757 0.789031 9.59475 0.892813 9.02986 1.03667C3.83897 2.35831 0 12.6661 0 12.6661C0 12.6661 16.7999 23.9084 18.7165 22.6113C19.1 22.3518 19.4677 22.0707 19.8177 21.7698L12.0185 13.9705H23.9292Z" fill="#0052B4"/>
<path d="M20.8695 12.6666L9.19898 0.996094C3.92287 2.25783 0 7.00373 0 12.6666C0 19.294 5.37262 24.6666 12 24.6666C14.5139 24.6666 16.8467 23.8931 18.7748 22.5718L8.86955 12.6666H20.8695Z" fill="#D80027"/>
<path d="M11.4126 18.3846L9.94704 17.6953L10.7275 16.2759L9.13605 16.5804L8.9344 14.9727L7.82595 16.1551L6.71749 14.9727L6.51579 16.5804L4.92443 16.2759L5.70485 17.6953L4.23926 18.3846L5.70485 19.0739L4.92443 20.4933L6.51588 20.1889L6.71745 21.7965L7.82595 20.6141L8.9344 21.7965L9.13605 20.1889L10.7274 20.4933L9.94699 19.074L11.4126 18.3846Z" fill="#F0F0F0"/>
<path d="M10.4342 7.32141L9.36828 6.82008L9.93589 5.78775L8.77841 6.00919L8.63173 4.83984L7.82553 5.69986L7.01933 4.83984L6.87261 6.00919L5.71512 5.78775L6.28278 6.82008L5.2168 7.32141L7.82553 7.84322L10.4342 7.32141Z" fill="#F0F0F0"/>
<path d="M10.9562 7.32227C10.9562 9.05116 9.55466 10.4527 7.82577 10.4527C6.09687 10.4527 4.69531 9.05116 4.69531 7.32227" fill="#F0F0F0"/>
</g>
</g>
<defs>
<clipPath id="clip0_3_16033">
<rect width="24" height="24" fill="white" transform="translate(0 0.666016)"/>
</clipPath>
<clipPath id="clip1_3_16033">
<rect width="24" height="24" fill="white" transform="translate(0 0.666016)"/>
</clipPath>
</defs>
</svg>
