<svg width="173" height="50" viewBox="0 0 173 50" fill="none" xmlns="http://www.w3.org/2000/svg">
<path d="M21.3933 22.2356H16.5641V16.1041H29.4759V19.2209C29.4759 27.9074 23.7825 33.3747 15.4965 33.3747C6.44807 33.3747 0.0429688 26.7321 0.0429688 17.1771C0.0429688 7.62204 6.44807 0.979492 15.3949 0.979492C23.4267 0.979492 28.0526 5.62927 29.2217 12.0163H20.885C20.0208 9.6148 18.3433 8.1841 15.3949 8.1841C10.8706 8.1841 8.27809 11.9652 8.27809 17.1771C8.27809 22.5422 11.0231 26.1701 15.4965 26.1701C18.5974 26.1701 20.6308 24.6372 21.3933 22.2356Z" fill="url(#paint0_linear_2001_1161)"/>
<path d="M32.935 32.8637V1.49046H41.1193V25.7613H55.0987V32.8637H32.935Z" fill="url(#paint1_linear_2001_1161)"/>
<path d="M87.0368 17.1771C87.0368 26.5277 80.7842 33.3747 71.7357 33.3747C62.7381 33.3747 56.5363 26.5277 56.5363 17.1771C56.5363 7.77533 62.7381 0.979492 71.7357 0.979492C80.7842 0.979492 87.0368 7.77533 87.0368 17.1771ZM78.8017 17.1771C78.8017 11.7609 75.955 8.1841 71.7357 8.1841C67.5165 8.1841 64.7715 11.7609 64.7715 17.1771C64.7715 22.5933 67.5165 26.1701 71.7357 26.1701C75.955 26.1701 78.8017 22.5933 78.8017 17.1771Z" fill="url(#paint2_linear_2001_1161)"/>
<path d="M110.043 16.6661C112.992 17.637 115.127 20.5495 115.127 24.0751C115.127 29.7468 111.263 32.8637 104.756 32.8637H90.4212V1.49046H103.791C110.297 1.49046 114.212 4.40296 114.212 10.0236C114.212 13.3959 112.331 15.8486 110.043 16.6661ZM98.1989 13.9069H102.876C105.265 13.9069 106.536 12.9872 106.536 11.0455C106.536 9.10384 105.265 8.2352 102.876 8.2352H98.1989V13.9069ZM98.1989 20.0385V26.119H103.689C105.976 26.119 107.247 24.8927 107.247 23.1043C107.247 21.2137 105.976 20.0385 103.689 20.0385H98.1989Z" fill="url(#paint3_linear_2001_1161)"/>
<path d="M127.886 1.49046H136.222L148.118 32.8637H139.832L137.595 26.7832H126.259L124.073 32.8637H115.99L127.886 1.49046ZM131.952 11.1988L128.75 20.0385H135.155L131.952 11.1988Z" fill="url(#paint4_linear_2001_1161)"/>
<path d="M150.836 32.8637V1.49046H159.021V25.7613H173V32.8637H150.836Z" fill="url(#paint5_linear_2001_1161)"/>
<path d="M119.29 37.2277H127.544V39.8357H122.261V41.65H127.093V44.2013H122.261V46.2045H127.544V48.8315H119.29V37.2277Z" fill="black"/>
<path d="M128.401 45.3919H131.541C131.785 46.1856 132.462 46.5825 133.402 46.5825C134.323 46.5825 134.963 46.1856 134.963 45.4675C134.963 44.9194 134.605 44.6737 133.872 44.5037L131.654 44.0312C129.961 43.6532 128.683 42.765 128.683 40.7995C128.683 38.5317 130.563 37.0387 133.12 37.0387C135.94 37.0387 137.538 38.5884 137.858 40.5916H134.906C134.662 39.9491 134.135 39.4577 133.139 39.4577C132.274 39.4577 131.691 39.8357 131.691 40.4782C131.691 40.9885 132.048 41.272 132.65 41.4043L134.906 41.9334C136.88 42.4059 137.971 43.4831 137.971 45.2785C137.971 47.6597 135.978 49.0204 133.458 49.0204C130.695 49.0204 128.814 47.6786 128.401 45.3919Z" fill="black"/>
<path d="M143.569 41.7633L145.995 37.2277H149.172L144.998 44.7115V48.8315H141.971V44.7115L137.872 37.2277H141.144L143.569 41.7633Z" fill="black"/>
<path d="M160.327 37.2277V48.8315H157.883L153.051 42.0468V48.8315H150.137V37.2277H152.957L157.413 43.6154V37.2277H160.327Z" fill="black"/>
<path d="M161.602 43.0296C161.602 39.5144 163.914 37.0387 167.148 37.0387C170.025 37.0387 171.717 38.7584 172.131 41.1208H169.123C168.822 40.2703 168.201 39.7034 167.148 39.7034C165.55 39.7034 164.648 41.1208 164.648 43.0296C164.648 44.9194 165.55 46.3557 167.148 46.3557C168.201 46.3557 168.822 45.7888 169.123 44.9194H172.131C171.717 47.3007 170.025 49.0204 167.148 49.0204C163.914 49.0204 161.602 46.5447 161.602 43.0296Z" fill="black"/>
<defs>
<linearGradient id="paint0_linear_2001_1161" x1="181.736" y1="-3.23568" x2="95.9861" y2="101.598" gradientUnits="userSpaceOnUse">
<stop stop-color="#DCCAFC"/>
<stop offset="1" stop-color="#734ABE"/>
</linearGradient>
<linearGradient id="paint1_linear_2001_1161" x1="181.736" y1="-3.23568" x2="95.9861" y2="101.598" gradientUnits="userSpaceOnUse">
<stop stop-color="#DCCAFC"/>
<stop offset="1" stop-color="#734ABE"/>
</linearGradient>
<linearGradient id="paint2_linear_2001_1161" x1="181.736" y1="-3.23568" x2="95.9861" y2="101.598" gradientUnits="userSpaceOnUse">
<stop stop-color="#DCCAFC"/>
<stop offset="1" stop-color="#734ABE"/>
</linearGradient>
<linearGradient id="paint3_linear_2001_1161" x1="181.736" y1="-3.23568" x2="95.9861" y2="101.598" gradientUnits="userSpaceOnUse">
<stop stop-color="#DCCAFC"/>
<stop offset="1" stop-color="#734ABE"/>
</linearGradient>
<linearGradient id="paint4_linear_2001_1161" x1="181.736" y1="-3.23568" x2="95.9861" y2="101.598" gradientUnits="userSpaceOnUse">
<stop stop-color="#DCCAFC"/>
<stop offset="1" stop-color="#734ABE"/>
</linearGradient>
<linearGradient id="paint5_linear_2001_1161" x1="181.736" y1="-3.23568" x2="95.9861" y2="101.598" gradientUnits="userSpaceOnUse">
<stop stop-color="#DCCAFC"/>
<stop offset="1" stop-color="#734ABE"/>
</linearGradient>
</defs>
</svg>
