<svg width="130" height="36" viewBox="0 0 130 36" fill="none" xmlns="http://www.w3.org/2000/svg">
<path d="M16.7238 15.945H13.1155V11.3866H22.7629V13.7038C22.7629 20.1615 18.5089 24.2261 12.3179 24.2261C5.55718 24.2261 0.771484 19.2878 0.771484 12.1843C0.771484 5.08084 5.55718 0.142578 12.242 0.142578C18.2431 0.142578 21.6994 3.59936 22.573 8.34769H16.344C15.6983 6.56232 14.4449 5.49869 12.242 5.49869C8.86159 5.49869 6.92452 8.30971 6.92452 12.1843C6.92452 16.1729 8.97553 18.87 12.3179 18.87C14.6348 18.87 16.1541 17.7304 16.7238 15.945Z" fill="url(#paint0_linear_2001_2289)"/>
<path d="M25.3474 23.8462V0.522444H31.4625V18.5661H41.9075V23.8462H25.3474Z" fill="url(#paint1_linear_2001_2289)"/>
<path d="M65.7707 12.1843C65.7707 19.1359 61.0989 24.2261 54.3382 24.2261C47.6154 24.2261 42.9816 19.1359 42.9816 12.1843C42.9816 5.1948 47.6154 0.142578 54.3382 0.142578C61.0989 0.142578 65.7707 5.1948 65.7707 12.1843ZM59.6176 12.1843C59.6176 8.15776 57.4906 5.49869 54.3382 5.49869C51.1857 5.49869 49.1347 8.15776 49.1347 12.1843C49.1347 16.2109 51.1857 18.87 54.3382 18.87C57.4906 18.87 59.6176 16.2109 59.6176 12.1843Z" fill="url(#paint2_linear_2001_2289)"/>
<path d="M82.9604 11.8045C85.1633 12.5262 86.7585 14.6915 86.7585 17.3125C86.7585 21.5291 83.8719 23.8462 79.0102 23.8462H68.2994V0.522444H78.2886C83.1503 0.522444 86.0748 2.68768 86.0748 6.86621C86.0748 9.37333 84.6695 11.1967 82.9604 11.8045ZM74.1106 9.7532H77.6049C79.3901 9.7532 80.3396 9.06944 80.3396 7.62595C80.3396 6.18245 79.3901 5.53668 77.6049 5.53668H74.1106V9.7532ZM74.1106 14.3116V18.832H78.2126C79.9218 18.832 80.8713 17.9203 80.8713 16.5908C80.8713 15.1853 79.9218 14.3116 78.2126 14.3116H74.1106Z" fill="url(#paint3_linear_2001_2289)"/>
<path d="M96.2916 0.522444H102.521L111.408 23.8462H105.217L103.546 19.3258H95.0762L93.443 23.8462H87.4039L96.2916 0.522444ZM99.3302 7.73991L96.9373 14.3116H101.723L99.3302 7.73991Z" fill="url(#paint4_linear_2001_2289)"/>
<path d="M113.44 23.8462V0.522444H119.555V18.5661H130V23.8462H113.44Z" fill="url(#paint5_linear_2001_2289)"/>
<path d="M89.8696 27.0905H96.0366V29.0294H92.0891V30.3782H95.6995V32.2749H92.0891V33.7642H96.0366V35.7171H89.8696V27.0905Z" fill="black"/>
<path d="M96.6766 33.1601H99.0226C99.2052 33.7502 99.711 34.0452 100.413 34.0452C101.102 34.0452 101.579 33.7501 101.579 33.2163C101.579 32.8088 101.312 32.6262 100.765 32.4997L99.1069 32.1485C97.8426 31.8675 96.8873 31.2071 96.8873 29.7459C96.8873 28.06 98.2921 26.95 100.203 26.95C102.31 26.95 103.504 28.1021 103.743 29.5914H101.537C101.355 29.1137 100.961 28.7484 100.217 28.7484C99.5705 28.7484 99.135 29.0294 99.135 29.5071C99.135 29.8864 99.4019 30.0972 99.8514 30.1955L101.537 30.5889C103.012 30.9402 103.827 31.741 103.827 33.0758C103.827 34.846 102.338 35.8576 100.456 35.8576C98.3904 35.8576 96.9856 34.8601 96.6766 33.1601Z" fill="black"/>
<path d="M108.01 30.4625L109.822 27.0905H112.196L109.078 32.6543V35.7171H106.816V32.6543L103.754 27.0905H106.198L108.01 30.4625Z" fill="black"/>
<path d="M120.531 27.0905V35.7171H118.705L115.095 30.6732V35.7171H112.917V27.0905H115.024L118.354 31.8394V27.0905H120.531Z" fill="black"/>
<path d="M121.483 31.4038C121.483 28.7906 123.211 26.95 125.628 26.95C127.777 26.95 129.041 28.2286 129.35 29.9848H127.103C126.878 29.3525 126.414 28.9311 125.628 28.9311C124.434 28.9311 123.759 29.9848 123.759 31.4038C123.759 32.8088 124.434 33.8766 125.628 33.8766C126.414 33.8766 126.878 33.4551 127.103 32.8088H129.35C129.041 34.5791 127.777 35.8576 125.628 35.8576C123.211 35.8576 121.483 34.0171 121.483 31.4038Z" fill="black"/>
<defs>
<linearGradient id="paint0_linear_2001_2289" x1="136.527" y1="-2.9911" x2="72.8422" y2="75.2587" gradientUnits="userSpaceOnUse">
<stop stop-color="#DCCAFC"/>
<stop offset="1" stop-color="#734ABE"/>
</linearGradient>
<linearGradient id="paint1_linear_2001_2289" x1="136.527" y1="-2.9911" x2="72.8422" y2="75.2587" gradientUnits="userSpaceOnUse">
<stop stop-color="#DCCAFC"/>
<stop offset="1" stop-color="#734ABE"/>
</linearGradient>
<linearGradient id="paint2_linear_2001_2289" x1="136.527" y1="-2.9911" x2="72.8422" y2="75.2587" gradientUnits="userSpaceOnUse">
<stop stop-color="#DCCAFC"/>
<stop offset="1" stop-color="#734ABE"/>
</linearGradient>
<linearGradient id="paint3_linear_2001_2289" x1="136.527" y1="-2.9911" x2="72.8422" y2="75.2587" gradientUnits="userSpaceOnUse">
<stop stop-color="#DCCAFC"/>
<stop offset="1" stop-color="#734ABE"/>
</linearGradient>
<linearGradient id="paint4_linear_2001_2289" x1="136.527" y1="-2.9911" x2="72.8422" y2="75.2587" gradientUnits="userSpaceOnUse">
<stop stop-color="#DCCAFC"/>
<stop offset="1" stop-color="#734ABE"/>
</linearGradient>
<linearGradient id="paint5_linear_2001_2289" x1="136.527" y1="-2.9911" x2="72.8422" y2="75.2587" gradientUnits="userSpaceOnUse">
<stop stop-color="#DCCAFC"/>
<stop offset="1" stop-color="#734ABE"/>
</linearGradient>
</defs>
</svg>
