<svg width="173" height="49" viewBox="0 0 173 49" fill="none" xmlns="http://www.w3.org/2000/svg">
<path d="M21.3933 22.0852H16.5641V15.9537H29.4759V19.0706C29.4759 27.757 23.7825 33.2243 15.4965 33.2243C6.44807 33.2243 0.0429688 26.5817 0.0429688 17.0267C0.0429688 7.47165 6.44807 0.829102 15.3949 0.829102C23.4267 0.829102 28.0526 5.47888 29.2217 11.8659H20.885C20.0208 9.46441 18.3433 8.03371 15.3949 8.03371C10.8706 8.03371 8.27809 11.8149 8.27809 17.0267C8.27809 22.3918 11.0231 26.0197 15.4965 26.0197C18.5974 26.0197 20.6308 24.4868 21.3933 22.0852Z" fill="url(#paint0_linear_2001_3940)"/>
<path d="M32.935 32.7133V1.34007H41.1193V25.6109H55.0987V32.7133H32.935Z" fill="url(#paint1_linear_2001_3940)"/>
<path d="M87.0368 17.0267C87.0368 26.3774 80.7842 33.2243 71.7357 33.2243C62.7381 33.2243 56.5363 26.3774 56.5363 17.0267C56.5363 7.62494 62.7381 0.829102 71.7357 0.829102C80.7842 0.829102 87.0368 7.62494 87.0368 17.0267ZM78.8017 17.0267C78.8017 11.6105 75.955 8.03371 71.7357 8.03371C67.5165 8.03371 64.7715 11.6105 64.7715 17.0267C64.7715 22.4429 67.5165 26.0197 71.7357 26.0197C75.955 26.0197 78.8017 22.4429 78.8017 17.0267Z" fill="url(#paint2_linear_2001_3940)"/>
<path d="M110.043 16.5157C112.992 17.4866 115.127 20.3991 115.127 23.9247C115.127 29.5964 111.263 32.7133 104.756 32.7133H90.4212V1.34007H103.791C110.297 1.34007 114.212 4.25257 114.212 9.87318C114.212 13.2456 112.331 15.6982 110.043 16.5157ZM98.1989 13.7565H102.876C105.265 13.7565 106.536 12.8368 106.536 10.8951C106.536 8.95345 105.265 8.08481 102.876 8.08481H98.1989V13.7565ZM98.1989 19.8881V25.9686H103.689C105.976 25.9686 107.247 24.7423 107.247 22.9539C107.247 21.0633 105.976 19.8881 103.689 19.8881H98.1989Z" fill="url(#paint3_linear_2001_3940)"/>
<path d="M127.886 1.34007H136.222L148.118 32.7133H139.832L137.595 26.6328H126.259L124.073 32.7133H115.99L127.886 1.34007ZM131.952 11.0484L128.75 19.8881H135.155L131.952 11.0484Z" fill="url(#paint4_linear_2001_3940)"/>
<path d="M150.836 32.7133V1.34007H159.021V25.6109H173V32.7133H150.836Z" fill="url(#paint5_linear_2001_3940)"/>
<path d="M119.29 37.0773H127.544V39.6853H122.261V41.4996H127.093V44.0509H122.261V46.0541H127.544V48.6811H119.29V37.0773Z" fill="black"/>
<path d="M128.401 45.2415H131.541C131.785 46.0353 132.462 46.4321 133.402 46.4321C134.323 46.4321 134.963 46.0352 134.963 45.3171C134.963 44.769 134.605 44.5233 133.872 44.3533L131.654 43.8808C129.961 43.5028 128.683 42.6146 128.683 40.6491C128.683 38.3813 130.563 36.8883 133.12 36.8883C135.94 36.8883 137.538 38.438 137.858 40.4412H134.906C134.662 39.7987 134.135 39.3073 133.139 39.3073C132.274 39.3073 131.691 39.6853 131.691 40.3278C131.691 40.8381 132.048 41.1216 132.65 41.2539L134.906 41.783C136.88 42.2555 137.971 43.3327 137.971 45.1281C137.971 47.5093 135.978 48.8701 133.458 48.8701C130.695 48.8701 128.814 47.5283 128.401 45.2415Z" fill="black"/>
<path d="M143.569 41.6129L145.995 37.0773H149.172L144.998 44.5611V48.6811H141.971V44.5611L137.872 37.0773H141.144L143.569 41.6129Z" fill="black"/>
<path d="M160.327 37.0773V48.6811H157.883L153.051 41.8964V48.6811H150.137V37.0773H152.957L157.413 43.465V37.0773H160.327Z" fill="black"/>
<path d="M161.602 42.8792C161.602 39.364 163.914 36.8883 167.148 36.8883C170.025 36.8883 171.717 38.6081 172.131 40.9704H169.123C168.822 40.12 168.201 39.553 167.148 39.553C165.55 39.553 164.648 40.9704 164.648 42.8792C164.648 44.769 165.55 46.2053 167.148 46.2053C168.201 46.2053 168.822 45.6384 169.123 44.769H172.131C171.717 47.1503 170.025 48.8701 167.148 48.8701C163.914 48.8701 161.602 46.3943 161.602 42.8792Z" fill="black"/>
<defs>
<linearGradient id="paint0_linear_2001_3940" x1="181.736" y1="-3.38607" x2="95.9861" y2="101.448" gradientUnits="userSpaceOnUse">
<stop stop-color="#DCCAFC"/>
<stop offset="1" stop-color="#734ABE"/>
</linearGradient>
<linearGradient id="paint1_linear_2001_3940" x1="181.736" y1="-3.38607" x2="95.9861" y2="101.448" gradientUnits="userSpaceOnUse">
<stop stop-color="#DCCAFC"/>
<stop offset="1" stop-color="#734ABE"/>
</linearGradient>
<linearGradient id="paint2_linear_2001_3940" x1="181.736" y1="-3.38607" x2="95.9861" y2="101.448" gradientUnits="userSpaceOnUse">
<stop stop-color="#DCCAFC"/>
<stop offset="1" stop-color="#734ABE"/>
</linearGradient>
<linearGradient id="paint3_linear_2001_3940" x1="181.736" y1="-3.38607" x2="95.9861" y2="101.448" gradientUnits="userSpaceOnUse">
<stop stop-color="#DCCAFC"/>
<stop offset="1" stop-color="#734ABE"/>
</linearGradient>
<linearGradient id="paint4_linear_2001_3940" x1="181.736" y1="-3.38607" x2="95.9861" y2="101.448" gradientUnits="userSpaceOnUse">
<stop stop-color="#DCCAFC"/>
<stop offset="1" stop-color="#734ABE"/>
</linearGradient>
<linearGradient id="paint5_linear_2001_3940" x1="181.736" y1="-3.38607" x2="95.9861" y2="101.448" gradientUnits="userSpaceOnUse">
<stop stop-color="#DCCAFC"/>
<stop offset="1" stop-color="#734ABE"/>
</linearGradient>
</defs>
</svg>
